<?xml version="1.0" standalone="no"?>
<!DOCTYPE svg PUBLIC "-//W3C//DTD SVG 1.1//EN" "http://www.w3.org/Graphics/SVG/1.1/DTD/svg11.dtd" >
<svg xmlns="http://www.w3.org/2000/svg" xmlns:xlink="http://www.w3.org/1999/xlink" version="1.1">
<metadata></metadata>
<defs>
<font id="1980swritermedium" horiz-adv-x="630" >
<font-face units-per-em="2048" ascent="1638" descent="-410" />
<missing-glyph horiz-adv-x="724" />
<glyph horiz-adv-x="0" />
<glyph unicode="&#xd;" horiz-adv-x="681" />
<glyph unicode=" "  horiz-adv-x="724" />
<glyph unicode="&#x09;" horiz-adv-x="724" />
<glyph unicode="&#xa0;" horiz-adv-x="724" />
<glyph unicode="!" horiz-adv-x="399" d="M69 272q15 43 44 56q76 31 150.5 4t74.5 -86q0 -47 -45 -72q-33 -14 -54.5 -14t-74.5 14q-78 23 -92 37q-18 18 -3 61zM123 971q8 27 23.5 36t52.5 9q55 0 59 -21q6 -117 -8 -417q-4 -76 -21.5 -102.5t-50.5 -6.5t-33 115q0 18 -18 179t-4 208z" />
<glyph unicode="&#x22;" horiz-adv-x="622" d="M74 1155q20 23 73.5 23t73.5 -23q10 -6 11 -40t-4 -82t-11 -96t-12 -95t-8 -64l-54 -4q-35 -2 -43 5t-16 52q-41 291 -10 324zM396 1051q-1 39 7 100q12 25 53.5 28t78.5 -18q20 -10 24 -26.5t0 -65.5q-2 -25 -9 -87t-12.5 -116.5t-9.5 -95.5h-106q0 10 -12.5 126 t-13.5 155z" />
<glyph unicode="$" horiz-adv-x="686" d="M68 373q0 51 17 65.5t37.5 -1t33.5 -42.5q27 -49 77 -65q94 -33 -51 -66q-68 -16 -91 6.5t-23 102.5zM74.5 894q31.5 77 124.5 105q70 23 92 62q26 37 46.5 37t47.5 -25.5t27 -42.5q0 -14 55 -14q59 0 83.5 -12.5t24.5 -45.5q0 -43 -16 -69.5t-39.5 -22.5t-42.5 37 q-18 35 -47 27q-51 -10 -39 -176q2 -55 13.5 -70.5t58.5 -38.5q63 -27 112.5 -83t49.5 -99q0 -51 -38 -102.5t-100 -81.5q-76 -37 -75 -52q-2 -29 -25 -4q-31 31 -12 51q2 4 6 7q23 12 -35 34q-12 6 -35 13q-10 4 -14 6v264l-80 29q-96 33 -135 111.5t-7.5 155.5zM158.5 851 q-2.5 -15 11.5 -56q14 -45 50 -71t63 -9q14 5 14 114q0 70 -5 87.5t-28 17.5q-35 0 -74 -39q-29 -29 -31.5 -44zM379 559q20 -190 35 -207q26 -32 96 62q31 41 -8 87t-80 52z" />
<glyph unicode="%" horiz-adv-x="778" d="M64.5 871.5q13.5 70.5 76.5 107.5q90 51 202 32.5t165 -93.5q33 -47 16.5 -117t-75.5 -125q-41 -39 -64 -47t-82 -2q-152 16 -207 102q-45 72 -31.5 142.5zM80 465q0 27 41 46t246 89q197 70 256 81t77 -15q20 -23 -5 -38.5t-173 -66.5q-397 -137 -436 -110q-6 4 -6 14z M182 836q-8 -63 17.5 -89t103.5 -26q68 0 94 37q29 39 26 84t-36 65q-29 20 -88 24.5t-86 -11.5q-23 -12 -31 -84zM287 203q-41 86 0 175t129 101q178 27 260 -67q37 -41 42 -104.5t-20.5 -112t-68.5 -48.5q-45 0 -62 29q-10 18 13 27q25 8 42 53t6.5 73.5t-57.5 54.5 t-90 26q-35 0 -79 -40t-44 -73q0 -20 25 -74q23 -39 18.5 -48t-45.5 -19q-27 -8 -39 0t-30 47z" />
<glyph unicode="&#x26;" horiz-adv-x="759" d="M63.5 360.5q-0.5 79.5 18.5 118.5q4 10 40 56.5t62.5 90.5t18.5 66q-10 47 -29 115q-18 72 -3 115t73 77q78 47 168 22.5t123 -101.5q41 -98 -70 -201l-68 -62l33 -96q59 -180 115 -39q26 68 63 68q31 0 45.5 -9.5t12.5 -36t-18.5 -69.5t-51.5 -113q-12 -27 -8 -39 t37 -38q55 -39 63 -39q10 0 10 -25q0 -27 -72.5 -30t-97.5 22q-14 14 -45 -2q-29 -14 -90 -10t-65 20q-4 12 21.5 25.5t53 28t27.5 24.5q10 25 -61.5 133.5t-98 108.5t-63.5 -56q-23 -35 -27 -61.5t4 -77.5q8 -59 3 -73.5t-37 -30.5q-29 -14 -39.5 -12.5t-26.5 24.5 q-20 27 -20.5 106.5zM272 877q0 -35 22.5 -71t43.5 -36q27 0 62.5 38t35.5 64.5t-26.5 52t-55.5 25.5q-27 0 -54.5 -25.5t-27.5 -47.5z" />
<glyph unicode="'" horiz-adv-x="268" d="M63 963v135q57 0 76 -1t43.5 -10.5t24.5 -37t-2 -68.5t-17 -121q-14 -78 -23 -96.5t-38 -18.5q-39 0 -50 41t-14 177z" />
<glyph unicode="(" horiz-adv-x="407" d="M63.5 523.5q-10.5 142.5 20.5 260.5q23 92 74 197.5t86 136.5q51 43 90 17q20 -14 -2 -54q-33 -59 -80 -180q-35 -84 -35 -256q0 -166 19 -188q20 -25 26 -219q2 -35 -5 -42.5t-40 -7.5t-49 16.5t-47 80.5q-47 96 -57.5 238.5z" />
<glyph unicode=")" horiz-adv-x="405" d="M61 1116q31 49 115 -57q90 -121 139 -285q74 -266 -32 -506q-20 -43 -37 -56t-56 -19q-61 -10 -67 -9q-6 10 12 64q68 217 60.5 387t-93.5 358q-49 109 -41 123z" />
<glyph unicode="*" horiz-adv-x="479" d="M61 936q0 8 9 16q4 10 27.5 5t39 -11t40 -16t30.5 -12v75q0 45 5 56.5t24 11.5q10 0 16 -8.5t10 -24.5t6 -30.5t3 -34t3 -27.5l74 10q45 6 62.5 1t2 -19.5t-58.5 -30.5q-55 -23 -61 -38t29 -48q45 -39 28 -66q-4 -8 -16 -8t-31.5 18.5t-45.5 50.5t-30 36q-20 -47 -52 -85 t-56 -7q-6 4 12.5 33.5t40 58t18.5 30.5q0 10 -57 19q-76 14 -72 45z" />
<glyph unicode="+" horiz-adv-x="636" d="M63 557q16 16 105 21q76 4 93.5 26.5t12.5 91.5q-6 51 9 74q33 63 67 14q29 -43 31 -133q2 -49 21.5 -60t125.5 -22q41 -8 47 -32q10 -16 -28 -27q-8 -2 -158 -18q-14 -2 -22 -5l-5 -100q-2 -63 -9 -81.5t-29.5 -18.5t-29.5 17.5t-11 78.5q-6 70 -15.5 87t-42.5 26 q-49 12 -71 4q-14 -6 -40 5t-42.5 27.5t-8.5 24.5z" />
<glyph unicode="," horiz-adv-x="325" d="M64 187.5q-5 7.5 2 29.5q2 8 25.5 113.5t37.5 124.5q14 16 69.5 19t65.5 -13q6 -14 -61 -148q-43 -82 -64.5 -107.5t-46.5 -25.5q-23 0 -28 7.5z" />
<glyph unicode="-" d="M61 621v34h508v-21.5v-18.5t-1 -13t-5 -11t-9 -7t-13.5 -7.5t-20.5 -4.5t-28 -5q-119 -12 -254 0q-158 14 -158 15q-18 6 -19 39z" />
<glyph unicode="." horiz-adv-x="288" d="M65.5 320q14.5 39 47.5 45q37 8 43 10q20 4 50 -26t21 -50q-16 -49 -70.5 -64.5t-82.5 19.5q-23 27 -8.5 66z" />
<glyph unicode="/" horiz-adv-x="434" d="M61 246q0 45 31 168q45 168 97.5 413.5t52.5 290.5t9 53.5t56 8.5q49 0 57.5 -8.5t8.5 -53.5q0 -53 -25 -151q-156 -616 -155 -717q0 -39 -8.5 -46t-57.5 -7q-45 0 -55.5 7t-10.5 42z" />
<glyph unicode="0" horiz-adv-x="595" d="M64 758.5q6 36.5 42 113.5q51 106 97 134q20 10 29.5 13t14.5 0t7 -13q4 -14 17.5 -19.5t24.5 1t11 20.5q0 45 72 4q80 -45 115 -113q2 -6 4 -10q27 -63 35 -196.5t-13 -194.5q-33 -100 -104.5 -163t-136.5 -46q-106 20 -154.5 96t-58.5 233q-8 104 -2 140.5z M153.5 718.5q-16.5 -192.5 32.5 -286.5q45 -86 112 -81t114 100q37 72 34.5 213t-38.5 215q-40 69 -60 77q-27 10 -64.5 9.5t-52.5 -11.5q-61 -43 -77.5 -235.5z" />
<glyph unicode="1" horiz-adv-x="432" d="M61 901q0 20 80 83t133 85q57 20 74 -10q23 -45 21 -365v-73q-4 -270 -8.5 -336t-24.5 -74q-25 -14 -51 12q-16 16 -21.5 84t-3.5 287q4 340 -6 350q-8 8 -82 -33q-96 -57 -109 -28q-2 6 -2 18z" />
<glyph unicode="2" horiz-adv-x="647" d="M61 279v36q0 39 181 217q141 141 185 206t44 134q0 92 -94 129q-51 18 -90 10.5t-94 -46.5q-49 -37 -64.5 -40t-30.5 19q-14 18 -10 30.5t27 37.5q41 41 110 61q106 33 213 -9t133 -128q29 -96 -5 -159.5t-189 -215.5q-188 -184 -180 -192.5t143 -12.5q92 -2 117.5 4.5 t46.5 32.5q18 25 27.5 29t25.5 -8q30 -23 14 -115q2 -6 -19.5 -10t-59 -6t-86 -3t-99.5 -1h-99h-86h-61zM78 319q-2 -20 14 -20q23 4 23 23q-6 20 -21.5 20t-15.5 -23z" />
<glyph unicode="3" horiz-adv-x="614" d="M61 344q0 20 9.5 26.5t32 2.5t61.5 -21q135 -57 230 16.5t42 192.5q-27 57 -133 94q-31 10 -40 25.5t4.5 31t47.5 25.5q59 20 83 49t24 82q0 61 -45 99q-35 27 -73 27.5t-157 -21.5q-55 -10 -51 10q4 31 78 64q27 12 55 18q57 12 76 12t66 -12q80 -20 119.5 -79.5 t28.5 -131.5t-66 -127q-23 -25 -19 -38t53 -64q41 -45 53.5 -71t12.5 -71q0 -47 -11.5 -72.5t-49.5 -64.5q-51 -53 -122 -79.5t-137 -16.5q-70 12 -121 39.5t-51 54.5z" />
<glyph unicode="4" horiz-adv-x="649" d="M68.5 482.5q-19.5 23.5 17.5 95.5q41 80 153.5 265t141.5 218q31 39 70 26q33 -6 38 -12q2 -2 11 -256q4 -137 10 -190.5t20.5 -76t49.5 -32.5q23 -8 -2 -43q-16 -20 -37 -26q-35 -12 -30 -76t42 -64q29 0 22.5 -24.5t-36.5 -32.5q-49 -12 -164 -2q-80 8 -74 29 q-6 27 49 41q33 8 44.5 21t15.5 46q4 35 -5.5 45t-52.5 21q-41 10 -39 16q0 2 6 2q23 2 23 10q2 16 -41 23q-10 2 -20 2q-57 0 -58 -21q0 -10 29 -16q16 -4 -6 -6q-18 -2 -58 -4q-100 -2 -119.5 21.5zM188 563q12 -37 134 -24q63 4 77.5 34.5t10.5 153.5q-2 94 -9.5 122 t-25.5 32q-10 4 -23.5 -3.5t-17.5 -21.5q-2 -8 -42 -75.5t-75 -135t-29 -82.5z" />
<glyph unicode="5" horiz-adv-x="626" d="M61 325.5q0 57.5 82 10.5q39 -23 111 -24t117 22q49 27 76.5 83t17.5 113q-16 90 -92 126t-183 6q-80 -23 -100 -13q-14 8 -9 174t19 191q10 16 184.5 17t200.5 -13q55 -35 -41 -47q-37 -4 -94 -4q-121 0 -148.5 -20.5t-21.5 -106.5l4 -78l103 -12q94 -8 151.5 -47 t98.5 -117q49 -90 17 -173t-134 -134q-88 -47 -223.5 -29t-135.5 75.5z" />
<glyph unicode="6" horiz-adv-x="653" d="M63 625q2 88 13.5 134t46.5 113q41 84 84 122t125 65q72 23 142.5 18.5t74.5 -33.5q2 -18 -8 -23t-47 -5q-147 2 -230.5 -81t-79.5 -226q10 -10 56 16q47 27 112.5 26t114.5 -30q51 -31 92 -115t31 -131q-27 -106 -95.5 -168.5t-162.5 -64.5q-147 -2 -228 151 q-33 61 -39 97t-2 135zM176 496q0 -41 47 -111t84 -82q33 -10 85 21.5t73 70.5q35 66 15.5 154t-77.5 115q-43 23 -67.5 21.5t-65.5 -24t-67.5 -69.5t-26.5 -96z" />
<glyph unicode="7" horiz-adv-x="673" d="M61.5 1006.5q-0.5 54.5 20.5 62.5q23 10 213 10t244 -8q109 -18 57 -117q-14 -31 -105.5 -285.5t-111.5 -291.5q-39 -68 -39 -103q2 -37 -41 -49t-55 21q-6 20 10 53q23 47 192 516q55 152 35 164q-16 8 -170 8q-150 0 -184 -29q-33 -29 -47 -16q-18 10 -18.5 64.5z" />
<glyph unicode="8" horiz-adv-x="743" d="M62 498.5q1 11.5 14.5 39t19.5 48.5q16 45 58 86q29 29 29.5 38t-19.5 42q-41 59 -49.5 107t10.5 112q16 59 55 93t113 54q70 18 165 -13.5t136 -84.5q33 -41 41 -117q4 -51 -4 -70.5t-41 -52.5q-47 -45 -47 -70.5t51 -54.5q90 -51 88 -162.5t-94 -199.5 q-125 -119 -285 -86t-219 190q-16 39 -19.5 64.5t-2.5 37zM178 469q0 -51 50.5 -110.5t103.5 -71.5q78 -20 151.5 31t81.5 133q14 115 -100 184q-106 61 -196.5 3t-90.5 -169zM236 821q20 -41 47.5 -54t93.5 -13q145 0 145 155q0 49 -8 67.5t-43 39.5q-123 76 -213 -15 q-78 -78 -22 -180z" />
<glyph unicode="9" horiz-adv-x="677" d="M61 815q0 96 56.5 178t132.5 92l57 9q20 6 84 -20.5t96 -53.5q137 -115 128 -343t-156 -370q-41 -39 -116 -72.5t-125 -39t-58 19.5q2 10 -10 10q-8 2 -33 -2q-37 -6 -37 2q0 4 2 8q8 23 88 31q76 8 145.5 44t102.5 81q31 45 51 108.5t12 86.5q-8 18 -57 -4 q-10 -4 -16 -7q-178 -80 -261 21q-86 104 -86 221zM172 801q-2 -78 3 -101.5t32 -46.5q100 -84 217 33q63 64 63 123q0 133 -98 182q-39 20 -86 23.5t-70 -10.5q-55 -43 -61 -203z" />
<glyph unicode=":" horiz-adv-x="397" d="M62 264q1 14 32 53q43 43 103.5 45.5t104.5 -36.5t22 -88q-27 -61 -114 -68.5t-126 47.5q-23 33 -22 47zM67.5 683q3.5 60 69.5 83q53 16 106.5 2t75.5 -49q16 -29 15.5 -43t-19.5 -41q-23 -35 -85 -51.5t-103 4.5q-63 35 -59.5 95z" />
<glyph unicode=";" horiz-adv-x="391" d="M61.5 683q3.5 60 69.5 83q53 16 106.5 2t75.5 -49q16 -31 16.5 -44t-18.5 -40q-23 -35 -86 -51.5t-104 4.5q-63 35 -59.5 95zM74 -29q2 8 20.5 89t38 154t31.5 77q29 20 78 20q37 0 53 -5t17 -28.5t-14 -58.5t-52 -106q-59 -115 -79 -138.5t-52 -23.5q-25 0 -35 5t-6 15z " />
<glyph unicode="&#x3c;" horiz-adv-x="485" d="M63 659q10 27 154 152q176 156 205 111q8 -14 -13.5 -38t-127.5 -114q-127 -104 -127 -124.5t102 -100.5q106 -86 142 -129t20 -60q-35 -35 -254 170q-113 102 -101 133z" />
<glyph unicode="=" horiz-adv-x="827" d="M61 799q1 33 13 41q51 12 692 12v-82h-352q-254 0 -303.5 4t-49.5 25zM70 483q-13 83 18 103q6 14 132 18t328 3t218 -1v-131q-115 0 -347.5 4t-348.5 4z" />
<glyph unicode="&#x3e;" horiz-adv-x="491" d="M61 918q6 16 29 16q33 0 186.5 -133t153.5 -162t-153.5 -170t-186.5 -141q-70 0 64 127q121 113 149.5 143.5t28.5 40.5q0 14 -51 57q-96 80 -161 145.5t-59 76.5z" />
<glyph unicode="?" horiz-adv-x="688" d="M61 950q0 39 66 78q66 35 164 37t176 -31q61 -27 110.5 -79t49.5 -91q0 -47 -42 -100t-106 -88q-82 -45 -82 -62q-2 -20 -45 -47.5t-63 -19.5q-25 8 -19 71q4 41 16.5 54.5t69.5 34.5q109 39 144 101t-21 122q-57 59 -168.5 62t-158.5 -54q-29 -39 -60 -34t-31 46z M201 360q0 41 20 62q39 39 124 13t85 -75q0 -45 -87 -70.5t-122 9.5q-20 20 -20 61z" />
<glyph unicode="@" horiz-adv-x="698" d="M63 565q-4 18 19 164q14 78 64.5 156t101.5 100q35 14 126 7t124 -27q94 -59 106 -260q6 -119 -10 -166q-14 -43 20 -101q33 -55 13.5 -69.5t-133.5 -18.5q-211 -2 -261 101q-53 113 2.5 208t174.5 95q55 0 69.5 25.5t-1 58t-46.5 63.5q-78 82 -190 -39 q-45 -49 -56.5 -78.5t-19.5 -119.5q-27 -260 57 -402q55 -96 43 -108q-6 -6 -33 -7q-39 0 -83 76t-48 148q-4 74 -16 82q-16 18 -8 36.5t35 22.5q23 2 24.5 5t-8.5 7q-6 4 -27 13q-35 14 -39 28zM322 561q0 -88 56 -124t97 26q23 33 26 88t-16 90q-14 27 -67 31t-78 -21 q-18 -18 -18 -90z" />
<glyph unicode="A" horiz-adv-x="712" d="M61 373q0 23 103 280q72 176 82 220.5t-13 54.5q-30 22 -81 22h-5q-39 0 -51 16.5t10 37.5q9 12 146 12q119 0 145.5 -23.5t85.5 -181.5q168 -463 168 -479q0 -20 -41 -20q-1 0 -1 -1q-40 0 -54 37q-18 49 -56 63.5t-151 16.5h-47q-63 0 -83 -4q-26 -6 -50 -37 q-35 -44 -73 -44q-5 0 -9 1q-25 4 -25 29zM217 508q9 -14 119 -17h29q84 0 102 13q5 3 5 17q0 62 -107 335q-11 28 -24 28q-23 0 -48 -100q-4 -16 -8 -34q-27 -123 -54 -181q-17 -32 -17 -50q0 -7 3 -11z" />
<glyph unicode="B" horiz-adv-x="888" d="M61 1038q0 12 111 14q23 1 47 1q91 1 195 -7q131 -10 182 -24q125 -33 169 -125q17 -36 18 -70q0 -53 -42 -102q-39 -47 -40 -72.5t38 -42.5q89 -40 89 -141q0 -17 -3 -37q-6 -61 -39 -123q-23 -35 -43 -40q-14 -4 -67 -4q-21 0 -49 1l-82 6l12 2q55 6 108.5 51.5 t61.5 96.5q6 29 15.5 37t33.5 4q39 -6 39 10q2 6 -9 10t-27.5 6.5t-34 3.5t-31 4t-13.5 7q0 14 -61 49q-51 29 -173 39q-38 3 -66 3q-62 0 -76 -15q-20 -20 -26 -148q-2 -34 -2 -60q0 -73 13 -87q18 -18 -22 -23q-9 -1 -25.5 -1t-40.5 1q-37 2 -47 0l8 283q4 112 4 192 q0 100 -6 148q-10 88 -45 94q-31 6 -52.5 23.5t-21.5 35.5zM299 828q3 -118 17 -140q12 -18 89 -18q17 0 37 1q112 5 156 31q68 43 68 111q0 6 -1 13q-7 77 -87 116q-40 20 -140 24q-21 1 -39 1q-67 0 -88 -13q-12 -7 -12 -98v-28zM401 266q-16 4 5 6q39 4 40 -2l-4 -4 q-23 -8 -41 0z" />
<glyph unicode="C" horiz-adv-x="831" d="M65 572q-3 20 -3 45q0 30 4 67q23 309 249 381q8 8 87 8q40 0 98 -2q172 -6 186 -6h7q51 1 67 -29q11 -20 12 -68q0 -27 -4 -63q-9 -130 -50 -130q-3 0 -7 1q-10 2 -21 10q-24 25 -24 48q0 29 -34 76.5t-67 66.5q-37 19 -110 19h-7q-78 -1 -133 -21q-133 -55 -151 -281 q-4 -51 -4 -84q0 -28 3 -42q7 -30 50 -113q59 -111 59 -117q0 -12 -39.5 -16.5t-60.5 6.5q-27 14 -72 129q-29 73 -35 115zM627 344q6 14 61 39q43 18 60.5 11t5.5 -38q-8 -28 -74 -28q-57 0 -53 16z" />
<glyph unicode="D" horiz-adv-x="911" d="M61 1024q4 23 29 31q18 6 91 6q58 0 151 -4q209 -4 286 -41q115 -59 163 -129t63 -201q7 -54 6 -99q0 -51 -8 -91q-16 -76 -64 -146q-41 -57 -57 -64t-62 9l-43 16l43 45q85 94 85 239q0 28 -3 58q-25 211 -159 277q-70 33 -182 47q-43 5 -72 5q-45 0 -54 -13 q-11 -32 -11 -248v-37v-92q0 -167 -3 -199q-4 -35 -9 -52t-12.5 -26.5t-18.5 -10.5t-27.5 -1h-40.5l4 322q2 106 2 173.5t-2 97.5q-4 60 -21 77q-27 27 -51 26q-27 0 -23 25z" />
<glyph unicode="E" horiz-adv-x="901" d="M63 1032q-8 16 11 23q6 2 23.5 8t23.5 8q10 4 92.5 4t238.5 -4q310 -8 334 -18q36 -14 50 -118q4 -30 4 -54q0 -58 -23 -78q-23 -19 -41 -19q-40 0 -51 97q-12 88 -23 98q-12 12 -182 12q-172 -1 -186 -25q-10 -17 -10 -126q0 -53 2 -127h90q59 0 75.5 7t22.5 34 q8 41 49 41q29 0 35 -16.5t10 -94.5q1 -19 1 -36q0 -77 -23 -97q-23 -23 -46.5 -14.5t-27.5 41.5q-4 23 -19.5 30.5t-72.5 9.5q-14 1 -26 1q-52 0 -62 -14q-14 -17 -21 -130q-3 -39 -3 -71q0 -115 40 -130q12 -4 -8 -10q-47 -14 -87 -14q-13 0 -26 2q-6 0 -8 2 q-14 8 -18 324q-4 291 -13.5 352t-52.5 65q-55 6 -72 37zM446 266q-16 4 5 6q39 4 41 -2l-5 -4q-23 -8 -41 0zM618 274q2 0 19 2h12q78 4 78 107q0 45 10.5 69.5t44.5 18.5q23 -4 29 -21.5t6 -89.5v-106q-38 -5 -70 -5q-49 0 -88 11q-6 2 -16 6z" />
<glyph unicode="F" horiz-adv-x="911" d="M61 1038q0 14 17 25q29 16 342 16t364 -16q35 -12 44.5 -29.5t17.5 -91.5q4 -40 4 -71q0 -101 -45 -101q-55 0 -72 127q-8 68 -16 82q-8 7 -89 7q-42 0 -100 -2q-176 -5 -188 -17q-18 -30 -18 -173q0 -44 2 -98l84 -4q24 -2 40 -2q24 0 34 4q16 6 26 33q21 57 48 57 q7 0 15 -4q37 -20 37 -114q0 -90 -13 -124t-42 -30q-33 6 -43 45q-6 27 -20.5 35t-59.5 10q-18 1 -32 1q-48 0 -60 -15q-18 -20 -18 -125q0 -38 2 -86q2 -29 6 -103q2 -28 61 -28h4q68 0 78 -19q8 -12 -33 -12q-57 2 -178 25l-61 10q0 637 -11 696q-6 35 -55 45 q-72 16 -72 47z" />
<glyph unicode="G" horiz-adv-x="903" d="M68 549q-6 15 -6 36.5t6 48.5q12 54 32 54q25 0 25 19q0 12 -16 14q-14 0 -14 17q0 19 16 57q18 47 47 77q139 144 343 144q36 0 74 -4q53 -7 96 -7q29 0 54 3q13 2 23 2q33 0 46 -18q19 -25 27 -111q2 -33 2 -53t-2 -28q-4 -14 -37 -28q-29 -14 -41 -11t-28 27 q-70 106 -141 138q-36 16 -79 16t-92 -16q-102 -35 -157.5 -128.5t-55.5 -234.5q0 -92 20.5 -152.5t76.5 -138.5q41 -59 44 -73.5t-18 -30.5q-23 -17 -43 -17q-10 0 -20 5q-27 12 -82 77q-47 53 -52 71t15 30q18 14 23.5 27.5t-3 23.5t-28.5 12q-27 4 -36 14.5t2 25t40 26.5 q37 16 37 22q2 8 -49 25q-6 2 -13 4q-29 8 -36 35zM489 463q-2 10 2.5 15t24 8t52 4.5t98.5 1.5q166 0 174 -13q4 -4 -2 -24q-10 -33 -43 -275h-43q-31 -1 -54 -1q-70 0 -71 9q0 4 14 13q35 16 46 37.5t11 64.5q0 82 -18 103.5t-92 23.5q-55 4 -75.5 10t-23.5 23z" />
<glyph unicode="H" horiz-adv-x="927" d="M64 1015.5q-7 20.5 10 37.5q14 16 25.5 12t11.5 -24.5t30.5 -24.5t42.5 14q12 20 86 28q24 2 42 2q39 0 53 -11q23 -20 8 -41t-58 -31q-29 -8 -36 -30.5t-9 -121.5q-1 -34 -1 -60q0 -37 2 -55q3 -30 20 -36q21 -8 115 -8q28 0 64 1q152 3 163 15q13 16 21 134q2 39 3 68 q0 57 -10 72q-14 27 -53 27q-35 0 -48.5 17.5t7.5 39.5q18 25 135 25q154 0 176 -39q2 -4 2 -8q0 -18 -43 -35q-29 -10 -35 -35.5t-8 -148.5q-3 -221 -2 -354q0 -177 4 -197q4 -18 21 -23l8 -4q37 -14 37 -28q0 -8 -22.5 -12.5t-50 -0.5t-40.5 15q-14 10 -57 0.5t-57 -0.5 q-23 14 4 22q29 10 29 175v6q0 171 -29 182q-28 10 -134 10h-37q-138 -2 -165 -17q-20 -10 -25.5 -38.5t-5.5 -118.5q0 -203 57 -203q25 0 25 -14.5t-86 -21.5q-32 -3 -55 -3q-41 0 -58 8q-18 10 -18 24.5t18 67.5q25 74 41 99q12 23 -16 45q-20 14 -21.5 24.5t13.5 38.5 q13 21 13 39q0 15 -9 27q-13 17 -13 51q0 26 7 61q11 63 11 103v7q-1 42 -15 128q-14 76 -52 88q-29 10 -36 30.5z" />
<glyph unicode="I" horiz-adv-x="770" d="M63 195q-14 23 39 38q44 13 107 13q90 0 98 12q9 16 13 360q1 83 1 148q0 201 -8 213q-14 20 -116 20q-131 0 -131 39q0 8 10 23q15 19 220 19h88q290 -4 312 -27q11 -11 11 -19q0 -16 -37 -24q-31 -6 -103 -11l-127 -8q8 -692 15 -739q0 -2 143 -23q80 -14 80 -24 q-8 -17 -78 -19h-18q-59 0 -105 15q-30 9 -50 9q-19 0 -29 -10q-18 -18 -172 -20h-31q-124 0 -132 15z" />
<glyph unicode="J" horiz-adv-x="794" d="M61 446q0 25 13 33q18 20 51 6t22 -36q-6 -14 -27.5 -20.5t-40 -1.5t-18.5 19zM68 369q10 23 46 23.5t58 -19.5q20 -20 20 -35q0 -24 -59 -31q-10 -1 -18 -1q-32 0 -45 12q-16 16 -2 51zM78 541q-2 8 12 14q25 8 29 -6q2 -4 0 -8q-6 -14 -23.5 -16t-17.5 16zM158 256 q-16 12 10 18q18 4 39.5 14.5t43 14.5t60.5 4q68 0 113 24.5t55 65.5q12 55 15 279v77q0 152 -9 169q-15 28 -113 28h-7q-82 2 -98.5 10.5t3.5 43.5q8 12 209 12t228 -10q29 -10 25.5 -33t-36.5 -23q-39 0 -69 -22q-20 -14 -25.5 -57.5t-7.5 -208.5q0 -158 -6 -211.5 t-29 -90.5q-33 -59 -101.5 -95t-146.5 -36q-113 0 -153 27z" />
<glyph unicode="K" horiz-adv-x="870" d="M82 1020q25 10 156 10h19q117 0 126 -24q8 -23 -12.5 -39.5t-59.5 -16.5q-23 0 -30 -10t-7 -45q0 -78 12.5 -142.5t28.5 -64.5q47 0 189 166q47 55 54 72.5t-11 27.5q-27 16 -25 38t31 32q15 5 42 5q32 0 81 -7q90 -12 98 -26q1 -2 1 -5q0 -15 -38 -45 q-68 -53 -181.5 -161.5t-115.5 -122.5q-1 -2 -1 -4q0 -20 57 -62q39 -31 116.5 -132.5t112.5 -168.5q12 -29 47 -37q23 -2 32 -13.5t4 -24.5t-26 -23q-20 -10 -43 -10q-21 0 -45 8q-31 10 -53.5 37.5t-62.5 105.5q-90 166 -150 213q-27 22 -53 22q-31 0 -60 -30 q-22 -26 -22 -142v-10q0 -55 6 -81.5t14.5 -33t30 -13.5t37.5 -19q10 -8 10 -15q0 -15 -45 -24q-37 -8 -88 -8h-90l4 323q0 148 2 232v32q0 61 -6 97q-8 45 -19.5 59t-37.5 25q-50 16 -50 35q0 13 21 20z" />
<glyph unicode="L" horiz-adv-x="868" d="M61 246q0 16 22.5 27.5t47.5 9.5q8 -2 16 -2q39 0 49 46q12 54 13 291q0 301 -16 334q-18 31 -56 31q-20 0 -38.5 9t-25.5 21.5t1 22.5q10 10 182 12h39q137 0 172 -10q49 -14 35 -34q-13 -21 -66 -21h-8q-90 0 -104 -40q-13 -35 -13 -224v-55v-33q6 -326 25 -338 q14 -10 76 -11h34q52 0 121 2q92 3 109 3l16 123q10 84 19.5 104.5t36.5 22.5q41 6 52 -24q6 -17 6 -60q0 -31 -3 -74q-9 -139 -55 -169q-18 -12 -52 -12q-49 0 -131 27q-57 18 -72.5 18.5t-29.5 -18.5q-22 -28 -142 -28h-8q-100 0 -176 14t-76 35z" />
<glyph unicode="M" horiz-adv-x="845" d="M63 1030q10 18 77 18h4q71 0 87 -20q2 -2 12.5 -22.5t23 -51t27.5 -68.5t31.5 -74t31 -65.5t25.5 -46t17 -12.5q16 0 55.5 86t67.5 193q16 51 39 66.5t84 15.5q98 0 105 -37q4 -14 -15 -29q-16 -17 -19 -71q-1 -15 -1 -40q0 -69 5 -215q8 -205 15.5 -261t28.5 -79 q33 -37 14 -45q-20 -12 -127.5 -12t-122.5 14q-8 10 -3 20.5t22.5 22t40.5 15.5q25 4 30 38q2 17 2 61.5t-2 117.5q-10 307 -30 311q-8 2 -23 -26q-14 -31 -59 -154q-41 -113 -69.5 -159t-55.5 -46q-23 0 -107 234q-45 127 -65 127q-18 0 -31 -160q-14 -180 -14 -260 q0 -32 2 -48q8 -56 63 -57q35 0 40 -22.5t-27 -30.5q-8 -2 -20 -2q-23 0 -60 8q-33 8 -31 10q0 2 4 2q14 2 18.5 14.5t-5 26t-25.5 19.5q-33 8 -37 66q-1 15 -1 40q0 75 9 242t9 221v9q-1 46 -21 67q-31 33 -19 49z" />
<glyph unicode="N" horiz-adv-x="899" d="M67.5 1004.5q-14.5 21.5 0.5 39.5q16 20 88 21h4q68 0 106 -16q39 -18 56 -54q45 -92 136 -259t126 -218q37 -59 54 -59q4 0 7 4q16 25 19 272v240l-56 4q-78 7 -78 35q0 11 13 26q15 20 90 20q18 0 39 -1q166 -12 166 -47q0 -12 -34 -24.5t-34 -26.5q0 -113 -7 -436.5 t-18 -336.5l-16 -47q-86 86 -147 199q-162 295 -179 315q-20 25 -57 99q-58 112 -82 112q-27 0 -26 -227v-49v-21v-282h8q68 0 100 -31q16 -16 0 -35q-16 -16 -114 -20q-20 -1 -37 -1q-69 0 -97 13q-31 16 -29.5 37.5t31.5 32.5q23 6 28 56t5 298q0 346 -22 346 q-29 0 -43.5 21.5z" />
<glyph unicode="O" horiz-adv-x="925" d="M61 606q0 201 78 311.5t242 143.5q30 6 63 6q56 -1 118 -17q100 -26 161 -81q53 -49 97 -149.5t44 -176.5q0 -141 -53 -254t-147 -166q-53 -31 -173 -46q-58 -7 -102 -7q-47 0 -78 8q-35 10 -108.5 67.5t-75.5 76.5q0 20 -33 90q-33 74 -33 194zM176 658q-1 -20 -1 -40 q0 -92 30 -182q37 -110 117 -162q61 -39 108 -44q7 -1 15 -1q42 0 94 23q109 47 162 170q37 86 37 183q0 42 -7 87q-16 92 -41 142.5t-82 95.5q-66 55 -153 55q-37 0 -78 -10q-86 -20 -139.5 -113.5t-61.5 -203.5z" />
<glyph unicode="P" horiz-adv-x="833" d="M65.5 1010q8.5 6 38.5 10q12 2 71 2t163 -2q178 -4 264 -41q92 -39 138 -115q34 -56 34 -116q0 -22 -4 -42q-16 -82 -92 -137q-57 -43 -99 -55t-151 -20l-131 -11l-10 -82q-4 -35 -4 -61q0 -44 11 -64q17 -30 83 -30q68 0 90 -23q6 -8 6 -12t-5 -9t-18.5 -9.5 t-35.5 -10.5q-68 -18 -107 -18q-51 0 -51 31q0 39 -90 43q2 150 2 274q0 248 -8 393q-4 31 -51 58q-31 18 -41.5 29.5t-2 17.5zM152 168q-12 4 4 6q43 8 53 0q4 -2 -8 -6q-26 -8 -49 0zM281 918q-12 -20 8 -41q10 -13 10 -44q0 -27 -8 -69q-6 -38 -6 -70q0 -48 14 -80 q16 -39 29.5 -48t54.5 -9q150 0 227 74q39 39 39 119q0 121 -121 165q-43 15 -141 17q-8 0 -16 1q-83 0 -90 -15z" />
<glyph unicode="Q" horiz-adv-x="991" d="M66 542q-3 27 -3 51q0 62 19 99q17 27 17 53q0 11 -3 21v8q0 34 30 90q34 62 75 101q43 39 127 71q71 24 140 24q99 0 194 -48q137 -66 204 -242q30 -78 30 -168q0 -55 -12 -116q-30 -156 -120 -234l-47 -37q158 -152 190 -170q29 -16 22 -30.5t-44 -14.5q-16 0 -39 11.5 t-54.5 36t-50 40.5t-53.5 47t-37 33l-94 -16q-152 -29 -186.5 -29t-71.5 29q-150 123 -180 194q-43 96 -53 196zM201 481q27 -111 47 -150.5t63 -68.5q84 -50 160 -50q102 0 191 89q63 63 86 137q17 58 17 150q0 24 -1 51q-2 76 -13 114t-42 91q-33 57 -90.5 96t-130.5 47 q-10 1 -21 1q-62 0 -127 -38q-88 -53 -130 -191q-24 -77 -24 -155q0 -61 15 -123z" />
<glyph unicode="R" horiz-adv-x="931" d="M64.5 1034q7.5 8 36 16.5t227.5 12.5h17q239 1 338 -55q103 -58 103 -201q0 -70 -22.5 -106.5t-91.5 -84.5l-66 -47q102 -207 197 -293q51 -47 62.5 -64t-5.5 -30q-17 -17 -49 -17q-13 0 -27 3q-35 4 -59.5 26.5t-79.5 108.5q-76 117 -139 193q-36 41 -56 50q-17 7 -49 7 h-16l-66 -4q-7 -117 -7 -187q0 -84 10 -102q4 -2 47 -6q73 -6 73 -48q0 -24 -40 -31q-31 -5 -113 -5h-51q-98 2 -124 6t-30 25q-2 10 3 19t18.5 16.5t24.5 12.5t27.5 10t22.5 7q0 117 -4 347.5t-4 344.5l-57 29q-33 16 -45.5 27.5t-5 19.5zM211 211q0 -14 27 -14q8 0 16 8 t8 16l-4 23q-45 -12 -47 -33zM311 801q0 -121 15.5 -141.5t109.5 -20.5q82 0 150.5 37t85.5 90q6 20 6 40q0 29 -12 58q-20 49 -66 76q-38 25 -144 34q-35 3 -61 3q-51 0 -63 -12q-21 -21 -21 -164zM320.5 216q-9.5 -17 13.5 -19q25 -2 24 18q2 12 -14 14q-14 4 -23.5 -13z " />
<glyph unicode="S" horiz-adv-x="778" d="M61 393q2 72 9.5 89.5t33.5 21.5q23 4 36.5 -10.5t33.5 -59.5q33 -76 90 -98q60 -25 118 -25q60 0 118 27q96 45 95 125q0 14 -3 29q-8 45 -52 69.5t-165 48.5q-137 29 -186.5 57.5t-73.5 94.5q-19 49 -19 94q0 46 20 88q40 82 142 117q4 10 89 10q31 0 71 -1 q154 -5 166 -5q63 0 88 -25q25 -27 25 -82v-10q-2 -63 -31 -98q-27 -31 -44.5 -23.5t-46.5 60.5q-41 83 -144 105q-27 6 -52 6q-70 0 -123 -44q-35 -29 -43 -48q-5 -11 -4 -31q0 -15 2 -35q8 -66 39 -91.5t112 -35.5q133 -16 230.5 -64.5t114.5 -103.5q9 -34 9 -66 q0 -131 -159 -209q-67 -31 -105 -36q-16 -2 -49 -2q-47 0 -127 4q-186 6 -204 30q-12 22 -12 94q0 15 1 33z" />
<glyph unicode="T" horiz-adv-x="872" d="M61 844v39q1 59 5 81q6 30 26 46q35 24 326 24q6 0 13 -1q279 0 325 -21q27 -14 36 -37t15 -98q4 -41 4 -73q0 -110 -47 -128q-31 -10 -44 16.5t-24 116.5q-10 93 -32 115q-16 16 -61 16q-17 0 -38 -2q-51 -4 -59 -18q-20 -29 -21 -244v-103v-286l70 -11q59 -8 74.5 -17 t7.5 -36q-13 -32 -198 -32q-43 0 -95 2q-94 2 -119.5 9t-25.5 27q0 49 106 50q55 0 66 26q8 53 8 625q-53 18 -96 18q-25 0 -47 -6q-33 -8 -42.5 -25.5t-19.5 -101.5q-14 -117 -43 -133q-13 -8 -24 -8q-27 0 -35 49q-8 39 -11 121z" />
<glyph unicode="U" horiz-adv-x="833" d="M82 952q-20 16 -20 29q0 18 36 33q16 7 72 7q22 0 52 -1q100 -4 114 -14q8 -10 2 -22.5t-22.5 -23t-32.5 -10.5q-43 0 -54 -20q-12 -20 -16 -271q-1 -57 -1 -101q0 -87 3 -119q4 -48 27 -81q50 -71 148 -71q13 -1 27 1q118 10 165 101q16 31 28 250q6 107 7 173 q0 69 -7 93q-10 45 -39 45q-23 0 -46 18.5t-23 35.5q0 12 60 14h28q48 0 98 -5q64 -7 74 -20q23 -25 -12 -35q-27 -8 -29 -14q-8 -16 -14 -268q-4 -174 -11.5 -223.5t-36.5 -98.5q-41 -68 -87 -99.5t-134 -45.5q-50 -9 -76 -9q-9 0 -15 1q-25 4 -83 32q-100 49 -123.5 116 t-27.5 310q-6 272 -31 293z" />
<glyph unicode="V" horiz-adv-x="964" d="M61 1077q0 19 87 19q28 0 65 -2q154 -6 154 -26q0 -14 -52 -40q-47 -24 -55 -56q-2 -7 -2 -14q0 -29 23 -69q61 -111 110 -344q27 -123 76 -176q37 80 104.5 256t79.5 206q33 80 41 120t-3 57.5t-46 23.5q-47 6 -53 37q-2 10 1 15.5t18.5 8.5t42 4t77.5 1q147 0 166 -21 q16 -25 -18 -43q-23 -4 -56 -70.5t-63.5 -149.5t-36.5 -93q-14 -25 -23.5 -71t-38.5 -79q-29 -31 -67.5 -141.5t-39.5 -155.5q0 -27 -34 -52q-30 -22 -57 -22q-4 0 -8 1q-29 2 -42.5 23.5t-45.5 111.5q-94 274 -144 389q-94 213 -94 246q0 16 -33 53t-33 53z" />
<glyph unicode="W" horiz-adv-x="948" d="M73.5 1073.5q20.5 26.5 131 26.5t131.5 -27q13 -15 13 -26q0 -26 -70 -35q-35 -4 -42.5 -13.5t-7.5 -48.5q2 -80 26 -269t32 -189q37 0 82 172q35 135 54 178t44 43q31 0 49.5 -30t40.5 -118q57 -233 66 -258q10 -39 36 -16q20 16 27 57q54 380 54 453q0 12 -1 16 q-10 27 -67 27q-47 0 -62.5 21.5t13.5 43.5q18 14 89 14q18 -1 39 -1q105 -4 126 -25q18 -18 -7 -55q-25 -35 -51 -228q-74 -514 -125 -565q-18 -18 -25 -22t-13.5 0t-18.5 22q-31 47 -81 218t-60 190q-10 16 -20 16q-24 0 -52 -82q-10 -29 -23 -71q-45 -162 -71.5 -212.5 t-61.5 -50.5q-33 0 -41 17q-18 31 -69 383q0 6 -2 16q-53 350 -76 373q-27 29 -6.5 55.5z" />
<glyph unicode="X" horiz-adv-x="876" d="M61 279l43 36q41 37 151 190.5t110 174.5q-10 33 -57.5 94.5t-61.5 85.5q-38 62 -92 120q-46 49 -46 74q0 4 1 7q7 23 91 23h18q101 -2 109.5 -29t-16.5 -51q-16 -16 -14 -31t29 -53q57 -90 83.5 -115t52 -11.5t70.5 80.5q51 76 56.5 94.5t-23.5 39.5q-27 23 -16 47 q11 26 115 26q111 1 122 -21q1 -3 1 -7q0 -25 -66 -90q-66 -66 -145.5 -171.5t-79.5 -125.5q12 -25 99 -132.5t99 -130.5q14 -27 39 -51t45 -35q39 -21 39 -37q0 -15 -35 -24q-39 -10 -112 -12h-16q-119 0 -119 28q-2 16 30 43l45 37l-51 82q-96 156 -137 156 q-10 0 -79 -95.5t-89 -138.5q-2 -4 11.5 -15t35.5 -22q35 -18 39 -26t-12 -27q-16 -16 -34 -17h-3q-19 0 -62 13q-68 21 -124 21q-23 0 -44 -4z" />
<glyph unicode="Y" horiz-adv-x="847" d="M61 993q0 23 132 23q127 0 129 -21q2 -14 -35 -43q-25 -20 -27 -33.5t14 -52.5q27 -70 68 -134t66 -79q20 -8 36.5 6.5t59.5 81.5q66 100 75 141q2 8 2 16q0 29 -26 46q-35 23 -35 49q0 23 121 23q146 0 146 -33q0 -3 -1 -6q-4 -14 -36 -33q-50 -29 -50 -41 q4 -6 -72 -121q-75 -113 -75 -120q0 -8 -37 -60q-35 -49 -47 -184q-3 -44 -3 -74q0 -44 7 -58q12 -24 84 -24q74 0 74 -24q0 -8 -10 -15q-5 -1 -18 -1q-55 0 -255 28l4 139q1 35 1 61q0 54 -5 75q-8 32 -59 118q-164 279 -199 303q-29 20 -29 47z" />
<glyph unicode="Z" horiz-adv-x="718" d="M72 256q-9 15 -9 34q0 51 60 134q12 16 32.5 46t47 69t41.5 57q130 184 196 286q58 90 59 103q0 2 -1 2q-16 12 -131 19q-42 4 -73 4q-58 0 -79 -12q-33 -18 -37 -101q-6 -84 -33 -100q-31 -16 -45 6t-16 138v27q0 90 12 101q9 12 271 12h96.5t70 -4t56 -5t33 -13 t19.5 -18.5t-3 -32t-15.5 -41t-36 -56.5t-48 -69.5t-66.5 -89.5q-184 -250 -233.5 -324t-49.5 -96q0 -18 28 -23.5t136 -9.5q25 -1 46 -1q104 0 129 16q30 20 30 118q0 76 14.5 101.5t49.5 15.5q23 -8 28.5 -32.5t5.5 -125.5q0 -106 -6 -128.5t-37 -33.5q-37 -14 -76 -14 q-58 0 -122 31q-59 29 -127 32h-13q-57 0 -77 -24q-22 -24 -65 -24h-3q-45 1 -59 26z" />
<glyph unicode="_" horiz-adv-x="991" d="M61 184v78h869v-29q0 -35 -11.5 -42t-72.5 -13q-31 -2 -49 -4q-53 -6 -159 -6t-187.5 2t-219 8t-170.5 6z" />
<glyph unicode="`" horiz-adv-x="303" d="M61.5 1074.5q-4.5 35.5 26.5 43.5q29 6 60.5 1t44.5 -17q16 -16 36.5 -172t8.5 -168q-37 -43 -101 100q-12 25 -24 58q-47 119 -51.5 154.5z" />
<glyph unicode="a" horiz-adv-x="790" d="M66 301q-4 18 -4 36q0 53 32 99q42 62 123 88q57 18 291 25l6 51q1 9 1 17q1 61 -55 85q-30 13 -75 13q-49 0 -115 -15q-74 -16 -97 -16t-36 16q-12 14 -4 29.5t36 30t69 20.5q59 9 73 15q20 6 44 6q36 1 83 -13q78 -24 127 -65q68 -57 68 -375q0 -78 5 -91t42 -21 q27 -6 40 -17.5t9 -24t-24 -20.5q-24 -10 -59 -10q-14 0 -30 2q-54 6 -73 24q-20 18 -39 16.5t-88 -24.5q-102 -35 -153 -35q-42 0 -50 23q-9 24 -33 16q-4 -1 -8 -1q-22 0 -56 34q-40 41 -50 82zM156 342q0 -72 78 -100q37 -13 77 -13q43 1 91 17q90 30 114 104q8 30 8 53 t-8 39q-10 20 -30 26q-16 5 -54 5h-26q-250 -4 -250 -131z" />
<glyph unicode="b" horiz-adv-x="833" d="M62 1024q1 4 1 10q6 12 40 12q15 0 37 -2q69 -8 79 -28q12 -23 27 -139q10 -90 20 -101q7 -9 39 -9q27 0 72 7q43 6 49 6q23 3 45 3q51 1 103 -15q74 -22 114 -68q64 -70 80 -198q4 -33 3 -64q0 -87 -34 -149q-61 -111 -194 -144q-42 -12 -70 -12q-6 0 -12 1 q-31 3 -103 26q-73 24 -112 24q-20 0 -31 -6q-24 -13 -40 -13q-14 0 -21 11q-18 33 -19 346v49v392q-2 2 -11 7t-14.5 9t-15.5 10t-14 11.5t-11.5 12.5t-6.5 11zM248 511q-4 -26 -3 -50q0 -92 52 -162q55 -78 163 -79h2q106 0 171 75q58 69 58 155q1 32 -7 67 q-30 128 -143 169q-43 17 -85 17q-54 0 -108 -27q-82 -41 -100 -165z" />
<glyph unicode="c" horiz-adv-x="808" d="M76 347q-17 56 -17 109q0 73 33 140q53 113 193 166q59 22 137 24q5 0 11 1q71 0 114 -19q18 -8 95 -15.5t89 -31.5q14 -29 14 -78v-13q-2 -58 -22 -73q-18 -12 -33.5 -5t-60.5 50q-68 66 -108.5 84.5t-110.5 18.5q-145 0 -212 -110q-35 -57 -35 -123q0 -61 30 -128 q20 -51 41.5 -74.5t62.5 -42.5q63 -29 131 -28q87 0 180 47q73 37 103 37q18 0 20 -13q2 -14 -24 -43q-79 -83 -227 -107q-44 -7 -83 -7q-95 0 -166 39q-113 63 -155 195z" />
<glyph unicode="d" horiz-adv-x="851" d="M66 475q8 96 31.5 142.5t88.5 97.5q56 45 156 55q24 2 46 3q69 0 118 -25q50 -25 70 -25q7 0 11 3q15 11 19 95q1 27 1 49q0 53 -7 66q-8 16 -108 25q-105 12 -105 36q0 14 39 23q36 8 91 8q31 0 69 -3q104 -7 116 -26q8 -27 12 -170q3 -111 2 -258v-87q-1 -202 -1 -242 l39 -33q31 -23 35 -40t-20 -27.5t-71 -10.5q-80 0 -80 27q0 18 -23 18q-17 0 -48 -10q-25 -8 -68 -25q-69 -27 -131 -27q-122 0 -217 105q-49 55 -61 103q-7 28 -8 75q0 34 4 78zM146 429q2 -26 24 -79q29 -70 72 -104.5t110 -44.5q17 -2 34 -2q81 0 142 57q74 69 74 180 q0 76 -31.5 135.5t-85.5 87.5q-61 31 -117 31q-44 0 -85 -20q-93 -44 -125 -164q-13 -46 -13 -72q1 -2 1 -5z" />
<glyph unicode="e" horiz-adv-x="786" d="M70 412q-10 36 -10 71q0 63 32 127q49 98 152 146q61 30 142 30h3q79 0 143 -26q57 -23 108.5 -86.5t64.5 -126.5q4 -18 4 -33q0 -44 -32 -56q-42 -16 -255 -16h-252v-36q0 -41 54.5 -91.5t117.5 -68.5q31 -10 67 -10q49 0 109 18q137 36 183 36q24 0 24 -9v-5 q-8 -33 -96 -66.5t-178 -41.5q-26 -2 -51 -2q-266 0 -330 246zM186 538q25 -14 187 -22q111 -6 166 -6q45 0 55 4q20 13 20 36t-19 55q-38 66 -108 93q-51 18 -62 20h-4q-15 0 -63 -9q-59 -8 -106 -35t-62 -60q-16 -34 -16 -53q0 -17 12 -23z" />
<glyph unicode="f" horiz-adv-x="684" d="M66 801q18 14 73 22q41 4 50.5 14.5t17.5 61.5q8 72 63 121q33 31 60.5 38t109.5 7q119 0 158 -27q23 -17 23 -28q0 -19 -68 -19q-25 2 -61 4q-21 2 -39 2q-132 0 -156 -88q-5 -16 -5 -30q0 -27 20 -41q30 -19 126 -19q113 0 123 -26q6 -14 1 -24.5t-22.5 -18t-48 -10.5 t-75.5 -3h-109q0 -367 15 -397q12 -29 102 -29q123 0 123 -35q0 -3 -4 -12q-12 -18 -240 -18q-143 0 -186 4t-43 20q0 20 14 27.5t74 19.5l43 11v409q-18 -3 -34 -3q-51 0 -91 28q-29 20 -14 39z" />
<glyph unicode="g" horiz-adv-x="821" d="M65 610q5 23 46 70q49 61 104 84q50 19 125 19h7q79 -1 138 -23q38 -17 67 -17q22 0 38 9q32 15 75 15q13 0 27 -1q62 -6 68 -31q2 -10 -2 -17t-14.5 -11.5l-17.5 -7.5t-22.5 -6t-19.5 -5l-6 -282q-4 -184 -10 -246t-27 -103q-20 -39 -36.5 -52t-49.5 -17q-50 -4 -50 6 t32 53q33 43 42 109q3 19 3 34q0 38 -17 52q-10 6 -27 6q-26 0 -69 -15q-56 -19 -116 -19q-23 0 -47 2q-85 11 -152 56q-35 25 -48.5 34t-23.5 28.5t-10 29t-1 51.5t-5 79q-3 50 -3 80q0 25 2 36zM141 510q0 -53 33 -110.5t74 -77.5q56 -26 109 -26q67 0 131 42 q86 59 86 146q0 25 -7 53q-16 57 -62 105t-104 63q-47 14 -69 14h-4q-21 -2 -66 -25q-41 -20 -81 -80.5t-40 -103.5z" />
<glyph unicode="h" horiz-adv-x="872" d="M66 1126q12 18 82 18q2 0 3 1q66 0 85 -19q8 -8 21 -147t30 -143q5 -3 14 -3q26 0 86 21q74 29 123 29t104 -27q82 -41 104.5 -99.5t26.5 -244.5q4 -154 9.5 -189.5t25.5 -39.5q31 -6 31 -47q0 -29 -17.5 -34t-103.5 -5q-121 0 -131 26q-5 14 -5 24q0 31 44 32 q31 0 40 44t9 181q0 248 -86 272q-38 10 -74 10q-58 0 -112 -26q-68 -33 -87.5 -80t-19.5 -176v-27q0 -137 5.5 -161.5t33.5 -34.5q2 -2 4 -2q41 -16 41 -48q0 -18 -22 -18q-6 0 -68 -10q-10 -2 -20 -2q-43 0 -84 35q-39 31 -11 47q19 9 21 73q1 19 0 53q0 84 -4 259 q-8 260 -14.5 320.5t-26.5 80.5q-33 25 -51 33q-16 6 -6 24z" />
<glyph unicode="i" horiz-adv-x="694" d="M61 242q6 27 105 32q96 8 115 23q16 14 22 188q2 52 2 94q0 97 -10 134q-6 27 -20.5 34t-67.5 7q-61 0 -83 13t-9 44q9 23 121 25h17q97 0 114 -21q12 -4 25.5 -258t17.5 -260q8 -14 98 -13q12 0 23 -1q53 0 75 -8q26 -10 27 -39q0 -14 -51.5 -18.5t-237.5 -4.5 q-260 0 -276 12q-8 4 -7 17zM282 1000q-7 17 -8 32q0 22 15 39q24 28 46 28q11 -1 21 -7q27 -16 28 -61q0 -8 -1 -17q-4 -35 -11 -45.5t-34 -10.5q-38 0 -56 42z" />
<glyph unicode="j" horiz-adv-x="548" d="M61 731q0 20 39 12q41 -10 47 15q9 22 130 22h17q136 -2 164.5 -24.5t28.5 -147.5q0 -248 -47 -250l-14 -4q2 -2 16 -6q29 -6 29 -55q0 -47 -29 -49q-37 -2 0 -11q18 -4 24.5 -13t-0.5 -16t-28 -7q-35 0 -37 4q-2 23 -20 495q-14 0 -70 2q-250 8 -250 33zM308.5 968 q-1.5 42 10.5 52q20 14 42 3t35.5 -43t2.5 -58q-10 -25 -37.5 -32t-39.5 13q-12 23 -13.5 65z" />
<glyph unicode="k" horiz-adv-x="790" d="M61 1028q0 10 38 12h19q29 0 60 -4q41 -6 51.5 -16t14.5 -175q1 -55 1 -98q0 -85 -5 -120q-10 -51 14 -49q23 2 80 47q66 53 72 100q6 37 18 46t70 11q28 2 51 2q106 0 106 -38q0 -24 -53 -37q-53 -16 -130 -71.5t-87 -86.5q-1 -2 -1 -5q0 -36 124 -163 q133 -137 178 -141q41 -8 47 -23q1 -4 1 -8q0 -26 -71 -26q-31 0 -77 5h-9q-78 8 -90 15.5t-4 40.5q6 27 -4 48t-51 62q-110 113 -152 113q-10 0 -16 -6q-8 0 -16.5 -54.5t-13.5 -111.5t-7 -64q-8 2 -20.5 4.5l-17.5 3.5t-13 5t-10 9t-6.5 14.5t-5.5 22.5t-2 32.5t-1 46.5 q0 35 1 56.5t3.5 34.5t6.5 17t10 2q16 -6 53 19t6 22q-14 0 -53 -6q-23 -4 -27 -4v219q0 158 -6 191.5t-35 56.5q-41 33 -41 49z" />
<glyph unicode="l" horiz-adv-x="665" d="M61 219q0 29 86 35q16 1 29 1q62 0 86 -22q35 -31 41 -10q4 8 -6 27q-8 2 -13 181t-9.5 361.5t-8.5 186.5q-6 20 -82 20q-74 0 -74 27t42 17q41 -10 41 6q1 8 35 9h9q30 0 66 -5q41 -6 57 -17q12 -8 11 -268v-123q-2 -246 -6.5 -317.5t-18.5 -77.5q-22 -8 -22 -31 q0 -22 -132 -22t-131 22zM443.5 226.5q-5.5 13.5 7.5 27.5q5 4 26 4q17 0 47 -3q64 -7 74 -17q20 -18 -25 -33q-22 -8 -53 -8q-29 0 -50 8t-26.5 21.5z" />
<glyph unicode="m" horiz-adv-x="847" d="M72 225q-2 4 -2 8q0 18 30 50q29 27 32 43q1 4 1 11q0 19 -6 56q-16 82 -16 201q0 90 5 108.5t29 18.5q37 0 43 31q4 22 27 26q15 2 53 3q22 0 51 -1q19 -1 37 -1q95 0 156 18q30 8 57 8q34 -1 64 -13q53 -22 61 -22q16 0 26 -98q9 -82 9 -172v-35q-1 -33 -1 -60 q0 -65 4 -89q5 -32 30 -54q34 -27 20 -46q-12 -16 -50 -16q-8 0 -17 1l-56 4q-16 471 -28 512q-16 20 -62 20q-57 0 -76.5 -50t-29.5 -214q-7 -98 -7 -141q0 -17 1 -26q4 -30 30 -48q35 -23 25 -42t-55 -19q-57 0 -70.5 39.5t-13.5 222.5q1 186 -15 234q-13 41 -59 41 q-8 0 -16 -1q-51 -6 -68.5 -56t-19.5 -198q-1 -35 0 -63q0 -68 3 -90q5 -30 33 -56q29 -25 29 -42q0 -14 -20 -24q-17 -8 -33 -7q-28 0 -57 20q-6 4 -11 8q-29 31 -43 6q-16 -23 -24 -6zM78 745q-43 25 0 25q14 4 16 -16q0 -10 -8 -11q-4 0 -8 2z" />
<glyph unicode="n" horiz-adv-x="774" d="M64.5 799q9.5 22 54.5 14q107 -21 155 -21q31 0 37 9q10 17 82 18q11 0 23 -1q94 -3 133 -23q96 -50 96 -209v-19q-3 -76 -3 -128q0 -61 4 -92q7 -56 34 -64q33 -8 33 -31q0 -19 -49 -19q-41 0 -115 13q-55 8 -55 14q0 4 18 10q27 10 32 38t5 165q0 158 -17.5 207 t-76.5 61q-22 4 -43 4q-82 0 -140 -57q-33 -34 -39 -62q-4 -17 -4 -68q0 -35 2 -85q4 -178 13 -188q4 -6 28 -6q29 0 23 -17q-8 -16 -64 -16q-74 0 -87 34.5t-15 217.5q-2 162 -7 196.5t-32 55.5q-35 27 -25.5 49z" />
<glyph unicode="o" horiz-adv-x="765" d="M63 504q14 188 162 264q60 32 140 32q13 0 26 -1q174 -14 264 -142q33 -45 41.5 -76.5t8.5 -113.5t-8.5 -113.5t-41.5 -77.5q-37 -51 -59.5 -69.5t-71.5 -38.5q-35 -16 -55 -6q-2 2 -2 6q0 22 74 100q90 90 90 117q0 20 18 29q14 4 -7 59t-59 117.5t-65 85.5 q-35 29 -61.5 37t-79.5 8q-59 0 -83 -9.5t-63 -47.5q-72 -72 -71 -193q0 -31 4 -65q10 -84 41 -127t106 -76q56 -25 56 -33q0 -7 -50 -7q-20 0 -47 1q-98 6 -158 104q-51 84 -50 197q0 19 1 39z" />
<glyph unicode="p" horiz-adv-x="788" d="M61 774q8 20 73 24q12 1 24 1q47 0 73 -15q33 -12 44.5 -10t33 16.5t37.5 16.5q16 3 29 3q38 0 41 -28q4 -12 -14.5 -27.5t-55.5 -31.5q-66 -29 -94.5 -83t-28.5 -148q0 -154 101 -224q50 -33 104 -33q56 0 117 37q41 25 65 103q19 59 19 114q0 18 -2 35 q-18 141 -113 191q-27 14 -37 32.5t-1 33t36 18.5h6q40 0 106 -68q72 -74 91 -139q12 -48 12 -99q0 -33 -5 -67q-13 -86 -56 -145q-39 -55 -76 -78t-123 -49q-54 -17 -77 -17q-2 0 -4 1q-21 1 -73 32q-58 33 -74 33q-4 0 -6 -2q-8 -16 -8 -150q0 -88 -5 -117.5t-23 -44.5 q-29 -23 -45 5q-12 20 -13 364q0 324 -9 410t-42 86q-14 0 -21.5 6t-5.5 14z" />
<glyph unicode="q" horiz-adv-x="786" d="M73 408q-13 53 -13 101q0 75 30 142q23 47 69 98.5t66 53.5q14 0 16.5 -20.5t-7 -52.5t-27.5 -56q-41 -55 -51 -154q-2 -23 -2 -43q0 -71 26 -119q35 -70 96 -116q29 -20 33 -9q4 14 35 -14q33 -33 39 -10q8 20 33 20q29 0 82 80q61 102 63 199v6q0 92 -57 160 q-58 71 -152 71q-47 0 -66.5 16.5t-4.5 45.5q5 11 48 11q21 0 51 -3q91 -8 112 -27q18 -14 40 -2q26 16 99 16h5q77 -1 87 -18q10 -20 -25 -47q-27 -20 -31.5 -72.5t-9.5 -330.5q-6 -420 -14 -440q-4 -9 -18 -9q-29 0 -47 61q-15 54 -15 130v18q0 115 -16 121q-4 3 -10 3 q-19 0 -60 -23q-51 -31 -122 -31h-16q-81 4 -142 45q-92 66 -124 199z" />
<glyph unicode="r" horiz-adv-x="737" d="M61 207q0 25 9.5 32t40.5 7q49 0 59 20q10 18 11 200v31q0 154 -9 195q-14 45 -53 45q-29 0 -47.5 23.5t-3.5 38.5q19 17 88 17h8q76 -1 119 -21q39 -18 58 -19.5t54 15.5q10 4 41 18t40 16t31.5 5.5t44 -4t50.5 -23.5q55 -29 68.5 -55.5t-19.5 -42.5q-14 -7 -31 -7 q-24 0 -51 15q-30 17 -63 17q-68 0 -150 -71l-69 -63l-4 -137q-1 -39 -1 -70q0 -93 9 -115q12 -28 90 -28q117 0 137 -45q4 -8 4 -15q0 -26 -53 -41q-25 -8 -61 -10q-14 -1 -25 -1q-35 0 -52 5q-22 6 -48 33q-30 31 -49 31h-4q-20 -4 -21 -43q0 -20 -6 -24.5t-29 3.5 q-10 4 -45 11.5t-51.5 18.5t-16.5 38z" />
<glyph unicode="s" horiz-adv-x="677" d="M62 237q-1 14 -2 27q0 39 10 76q10 39 42.5 36t53.5 -44q42 -86 196 -86q155 0 155 103q0 7 -1 16q-8 92 -199 108q-81 8 -81 21q0 6 12 22q12 18 18 22.5t11.5 0.5t17.5 -21q25 -31 35 -14q10 20 2 37q-8 12 14 14q13 2 27 2q53 0 125 -29q8 -2 14 -6q76 -34 92 -62 q12 -19 12 -62q0 -18 -2 -40q-4 -51 -18 -77.5t-55 -67.5q-45 -45 -67 -53q-15 -5 -48 -5q-16 0 -37 1q-78 6 -121 32q-34 24 -57 24q-3 0 -7 -1q-24 -4 -54 -43q-27 -33 -36.5 -35t-27.5 23q-20 27 -24 81zM78 659q0 109 78 150q39 21 135 25q18 1 34 1q64 0 72 -16 q10 -16 29 -4q14 8 88 16q47 2 60.5 -6.5t27.5 -48.5q12 -37 10 -52t-20 -38q-29 -31 -47.5 -27.5t-71.5 46.5t-128 56q-26 5 -49 5q-42 0 -71 -16q-35 -18 -46 -64q-3 -14 -3 -27q0 -29 17 -49q14 -16 12.5 -23t-21.5 -18q-29 -16 -8 -39q19 -22 -6 -22q-33 0 -62.5 49 t-29.5 102z" />
<glyph unicode="t" horiz-adv-x="722" d="M65 797.5q-10 13.5 1.5 30t39.5 28.5q45 20 56.5 41.5t11.5 89.5q0 94 12 111q12 16 39 16q20 0 25.5 -18.5t5.5 -94.5q0 -117 18 -127q27 -10 150 -14q100 -4 134 -17.5t22 -45.5q-10 -27 -170 -27h-156q0 -20 2 -86t4 -120t5.5 -114.5t8.5 -98.5t13 -46 q16 -16 16 -26.5t-18.5 -29t-30.5 -16t-41 30.5q-31 30 -37 64q-4 25 -4 116v68q0 207 -8 231q-8 27 -58 35q-31 6 -41 19.5zM338 256q0 25 20 18q27 -10 25 -30q-2 -14 -18 -15q-27 0 -27 27zM422 260q-2 18 45 21q43 0 75 14q25 11 56 11q9 0 17 -1q40 -4 47 -20 q4 -12 -16.5 -24.5t-52.5 -20t-58 -4.5q-8 2 -76 8q-35 2 -37 16z" />
<glyph unicode="u" horiz-adv-x="788" d="M72 856q13 12 63 12q11 0 23 -1q70 -3 75 -19q2 -6 11 -287q2 -98 2 -155.5t-2 -75.5q-4 -36 -29 -49q-20 -10 -30.5 -3t-22.5 39q-19 44 -19 261q0 158 -5 186.5t-36 38.5q-40 15 -40 34q0 9 10 19zM348 262q0 10 16.5 21.5t36.5 17.5q55 16 105 61q35 33 41 62t6 162 q0 137 -13.5 177t-54.5 40q-27 0 -38 16.5t-1 32.5q7 16 91 16q86 0 98 -30q16 -41 16 -525q2 -2 26.5 -15t39 -22.5t8.5 -13.5q-55 -6 -92 -6q-48 0 -66 10q-29 16 -55 -4q-28 -23 -94 -23q0 1 -2 1q-68 0 -68 22z" />
<glyph unicode="v" horiz-adv-x="747" d="M61 748q7 39 19 45q9 5 46 5q12 0 28 -1q55 -2 70.5 -8.5t15.5 -26.5q0 -31 -33 -37q-45 -10 -45 -33q0 -22 35 -90q39 -68 86 -192q37 -98 53 -99q20 0 49 78q6 18 66.5 148.5t64.5 169.5q-8 14 -47 14q-33 0 -45 20.5t8 42.5q18 18 111 19q117 0 139 -39q4 -6 4 -12 q0 -21 -53 -37q-6 -2 -15 -4q-35 -10 -32 -19q20 -6 4 -49q-20 -57 -105.5 -224t-95.5 -175q-9 -6 -25 -6q-23 0 -60 14q-62 24 -73 51q-16 39 -96 215q-74 160 -74 221v9z" />
<glyph unicode="w" horiz-adv-x="782" d="M63 758l13 63q10 -2 31.5 -3t42 -3t40 -5t29.5 -9.5t8 -14.5q0 -20 -32 -28q-31 -6 -41.5 -19.5t-7 -42t23.5 -94.5q49 -162 72 -162q18 0 49 105q27 84 43 103.5t49 10.5q29 -6 66 -129q35 -122 59 -122q29 0 80 213q14 59 15 84.5t-11 36t-45 16.5q-41 8 -41 28 q0 23 90 29q20 1 37 1t31 -1q26 -2 40.5 -9t16.5 -18.5t-6 -27.5q-33 -57 -84 -268q-43 -166 -57.5 -195t-59.5 -31h-4q-43 -4 -53.5 6.5t-32.5 69.5q-35 109 -66 111q-10 2 -14 -13q-47 -166 -72 -174q-8 -3 -18 -3q-22 1 -54 17q-46 24 -50 52q-2 8 -31 111.5t-47 196.5 q-12 60 -13 92q0 17 4 26z" />
<glyph unicode="x" horiz-adv-x="741" d="M123 816q39 4 78 4q15 0 31 -1q54 -2 53 -12q0 -12 -27 -51q-18 -27 -15 -39t36 -49q55 -60 73 -62l1 -1q18 0 69 50q47 47 52 60.5t-15 36.5q-19 21 -19 35q0 25 58 30q18 2 41 2q142 0 141 -35v-4q-2 -18 -49 -39q-35 -16 -125 -104t-90 -109q18 -39 88.5 -119.5 t91.5 -109.5q-42 -10 -65 -10q-13 0 -20 3q-19 9 -85 91q-37 47 -65.5 53t-46 -10t-60.5 -76q-10 -12 -14 -18q-26 -34 -50 -34q-17 0 -32 17q-3 4 -3 10q0 28 66 97q29 31 46.5 52.5t25.5 35.5t7 22.5t-11 12.5q-29 14 -131 130q-96 109 -97 124q0 11 62 17z" />
<glyph unicode="y" horiz-adv-x="722" d="M82 776q18 6 45 6q16 0 35 -2q51 -6 59 -22q6 -10 -13.5 -22.5t-42 -24t-24.5 -15.5q6 -14 65.5 -134t72.5 -148q29 -70 51 -70q37 0 123 254q16 45 23 67.5t7 36t-4 16.5t-16 3q-29 0 -31 23.5t27 31.5q35 9 93 9h12q65 -1 85 -13q18 -12 10 -31.5t-30 -19.5 q-16 0 -89 -139.5t-81 -143.5q-18 -23 -27.5 -74t-19.5 -77q-25 -61 -66 -209q-31 -104 -43 -124t-47 -20q-45 0 -45 27t37 150l41 135q-41 70 -172 327q-57 110 -57 161q0 32 22 42z" />
<glyph unicode="z" horiz-adv-x="661" d="M61 227q0 27 269 330q109 122 109 143t-128 21q-98 0 -133 -14.5t-35 -55.5q0 -29 -26.5 -39t-40.5 13q-12 22 -12 69v14q2 58 18 74q18 18 216 20q23 0 44 1q159 0 201 -17q39 -16 39 -46.5t-39 -69.5q-53 -49 -193.5 -212t-140.5 -175q0 -18 29 -27q12 -6 16 -9t1 -7 t-13 -11q-16 -10 -60 -14q-25 -2 -49 -2q-17 0 -34 1q-38 3 -38 13zM356 248q0 14 55.5 14t65.5 -14q6 -8 -16.5 -18.5t-48 -12.5t-39.5 4q-17 9 -17 27zM524 307q-4 49 1 58.5t32 7.5q23 -4 31 -16.5t10 -57.5q4 -49 -1 -58.5t-32 -7.5q-23 4 -31 16.5t-10 57.5z" />
<glyph horiz-adv-x="598" d="M61 1010q2 68 15 63q45 -45 130 -157.5t85 -124.5q0 -20 -45 -21q-49 0 -115 80q-45 51 -57.5 80t-12.5 80zM307 993q0 72 4 72q10 0 118 -132t108 -145q0 -18 -47.5 -18t-114.5 76q-43 49 -55.5 75.5t-12.5 71.5z" />
<glyph horiz-adv-x="595" d="M61 821q-6 8 107 143.5t119 133.5q4 0 4 -72q0 -45 -12.5 -71.5t-55.5 -75.5q-68 -76 -115 -76t-47 18zM307 823q6 20 45 72.5t105.5 135.5t70.5 87q10 -82 2 -128t-63 -105q-76 -82 -115 -82q-45 0 -45 20z" />
<glyph unicode="&#xad;" d="M61 621v34h508v-21.5v-18.5t-1 -13t-5 -11t-9 -7t-13.5 -7.5t-20.5 -4.5t-28 -5q-119 -12 -254 0q-158 14 -158 15q-18 6 -19 39z" />
<glyph unicode="&#x2000;" horiz-adv-x="682" />
<glyph unicode="&#x2001;" horiz-adv-x="1365" />
<glyph unicode="&#x2002;" horiz-adv-x="682" />
<glyph unicode="&#x2003;" horiz-adv-x="1365" />
<glyph unicode="&#x2004;" horiz-adv-x="455" />
<glyph unicode="&#x2005;" horiz-adv-x="341" />
<glyph unicode="&#x2006;" horiz-adv-x="227" />
<glyph unicode="&#x2007;" horiz-adv-x="227" />
<glyph unicode="&#x2008;" horiz-adv-x="170" />
<glyph unicode="&#x2009;" horiz-adv-x="273" />
<glyph unicode="&#x200a;" horiz-adv-x="75" />
<glyph unicode="&#x2010;" d="M61 621v34h508v-21.5v-18.5t-1 -13t-5 -11t-9 -7t-13.5 -7.5t-20.5 -4.5t-28 -5q-119 -12 -254 0q-158 14 -158 15q-18 6 -19 39z" />
<glyph unicode="&#x2011;" d="M61 621v34h508v-21.5v-18.5t-1 -13t-5 -11t-9 -7t-13.5 -7.5t-20.5 -4.5t-28 -5q-119 -12 -254 0q-158 14 -158 15q-18 6 -19 39z" />
<glyph unicode="&#x2012;" d="M61 621v34h508v-21.5v-18.5t-1 -13t-5 -11t-9 -7t-13.5 -7.5t-20.5 -4.5t-28 -5q-119 -12 -254 0q-158 14 -158 15q-18 6 -19 39z" />
<glyph unicode="&#x2013;" horiz-adv-x="1146" d="M61 621v34h1024v-21.5v-18.5t-2 -13t-10 -11t-18 -7t-27.5 -7.5t-41.5 -4.5t-56 -5q-240 -12 -512 0q-319 14 -319 15q-36 6 -38 39z" />
<glyph unicode="&#x2014;" horiz-adv-x="2170" d="M61 621v34h2048v-21.5v-18.5t-4 -13t-20 -11t-36.5 -7t-54.5 -7.5t-82.5 -4.5t-112.5 -5q-480 -12 -1024 0q-637 14 -637 15q-73 6 -77 39z" />
<glyph unicode="&#x202f;" horiz-adv-x="273" />
<glyph unicode="&#x205f;" horiz-adv-x="341" />
<glyph unicode="&#x25fc;" horiz-adv-x="819" d="M0 0v819h819v-819h-819z" />
</font>
</defs>
</svg>
